<?xml version="1.0" standalone="no"?>
<!DOCTYPE svg PUBLIC "-//W3C//DTD SVG 20010904//EN"
 "http://www.w3.org/TR/2001/REC-SVG-20010904/DTD/svg10.dtd">
<svg version="1.0" xmlns="http://www.w3.org/2000/svg"
 width="700.000000pt" height="700.000000pt" viewBox="0 0 700.000000 700.000000"
 preserveAspectRatio="xMidYMid meet">
<metadata>
Created by potrace 1.14, written by Peter Selinger 2001-2017
</metadata>
<g transform="translate(0.000000,700.000000) scale(0.100000,-0.100000)"
fill="#000000" stroke="none">
<path d="M2623 6454 c-111 -52 -194 -89 -275 -125 -51 -22 -115 -51 -143 -64
-81 -37 -468 -212 -615 -277 -74 -33 -157 -70 -185 -83 -27 -12 -140 -63 -250
-113 -110 -49 -297 -134 -415 -187 -118 -54 -321 -144 -450 -202 -283 -126
-314 -151 -281 -235 12 -29 2 -19 705 -700 l130 -125 -234 -414 c-256 -451
-261 -463 -210 -513 20 -19 213 -136 280 -169 8 -4 24 -13 35 -20 11 -7 50
-29 88 -50 l67 -38 0 -532 c0 -604 -5 -566 85 -617 178 -102 158 -90 390 -225
83 -48 166 -97 185 -107 19 -11 64 -37 100 -58 36 -21 81 -47 100 -58 49 -28
1389 -804 1579 -914 183 -106 198 -109 287 -55 50 30 349 203 1589 920 105 60
210 121 235 134 25 14 65 38 90 53 25 15 164 96 310 180 146 83 274 161 285
171 19 19 20 36 25 565 l5 545 50 28 c201 112 394 226 412 243 12 11 25 34 28
50 8 36 -10 74 -208 421 -81 142 -147 263 -147 268 0 5 -4 9 -10 9 -5 0 -10 4
-10 9 0 4 -21 46 -47 91 l-47 82 135 130 c723 701 687 665 700 698 14 34 3 83
-24 107 -12 12 -114 63 -227 113 -113 51 -230 103 -260 117 -30 14 -114 51
-186 83 -72 32 -170 77 -219 99 -48 23 -88 41 -90 41 -2 0 -39 16 -82 36 -43
20 -161 74 -263 119 -102 46 -210 94 -240 108 -30 14 -147 66 -260 117 -113
51 -230 103 -260 117 -179 82 -518 231 -536 237 -12 4 -33 2 -48 -4 -22 -8
-137 -102 -202 -164 -6 -6 -42 -38 -80 -71 -88 -77 -325 -287 -431 -382 l-82
-74 -83 73 c-45 40 -92 82 -104 93 -17 17 -65 59 -168 148 -12 10 -37 33 -56
50 -19 18 -73 66 -120 107 -47 41 -87 77 -90 80 -28 30 -163 140 -173 141 -7
1 -22 3 -34 4 -12 1 -34 -4 -50 -11z m77 -254 c3 -3 41 -36 85 -75 90 -79 86
-75 146 -130 24 -22 98 -87 164 -145 66 -58 138 -122 160 -142 22 -21 43 -38
48 -38 35 0 -64 -54 -535 -291 -299 -149 -818 -411 -1155 -580 -336 -170 -614
-309 -617 -309 -2 0 -40 34 -83 76 -591 572 -625 606 -621 609 2 1 61 28 133
60 110 49 352 158 500 224 67 31 126 57 383 172 136 61 272 122 302 136 30 14
235 106 455 205 220 99 425 191 455 205 138 64 133 62 155 44 11 -9 22 -18 25
-21z m1810 -35 c52 -24 167 -76 255 -115 88 -40 193 -88 233 -106 41 -19 75
-34 77 -34 2 0 41 -18 87 -39 115 -54 287 -131 292 -131 2 0 46 -20 97 -44 52
-24 155 -71 229 -104 74 -33 167 -74 205 -92 67 -31 439 -198 630 -283 50 -22
91 -41 93 -42 4 -3 -4 -11 -339 -336 -304 -295 -360 -349 -365 -349 -2 0 -225
112 -496 249 -271 136 -792 398 -1157 582 l-663 333 43 40 c38 36 158 143 216
194 54 47 159 139 179 157 12 11 52 47 90 80 37 33 81 72 97 87 34 30 20 33
197 -47z m-1115 -1400 l0 -683 -255 -148 c-140 -81 -288 -167 -327 -191 -40
-23 -74 -43 -76 -43 -2 0 -41 -22 -87 -50 l-84 -49 -30 18 c-17 11 -98 56
-181 101 -82 46 -170 94 -195 108 -138 75 -452 249 -495 272 -27 15 -70 39
-95 52 -25 14 -117 65 -205 113 -88 48 -161 89 -163 90 -2 2 313 161 700 355
387 194 879 442 1093 550 215 108 392 195 395 193 3 -3 5 -312 5 -688z m1201
198 c544 -273 1035 -520 1091 -547 100 -50 112 -61 82 -78 -39 -22 -423 -233
-529 -291 -30 -16 -138 -76 -240 -132 -102 -56 -221 -122 -265 -146 -44 -24
-88 -48 -97 -54 -9 -5 -45 -25 -80 -44 -35 -18 -77 -41 -93 -51 l-30 -19 -224
130 c-123 72 -242 140 -265 153 -159 90 -313 181 -326 193 -13 12 -15 103 -15
698 0 377 1 685 1 685 1 0 447 -224 990 -497z m-3392 -848 c72 -40 201 -110
286 -157 169 -93 229 -126 305 -168 28 -15 73 -40 100 -55 28 -15 113 -62 190
-105 77 -42 167 -92 200 -110 33 -18 74 -41 90 -50 17 -10 62 -35 100 -56 39
-21 196 -107 350 -192 154 -85 305 -168 335 -184 155 -84 180 -100 173 -111
-7 -12 -51 -70 -356 -469 l-151 -197 -30 18 c-29 17 -1023 585 -1126 643 -25
14 -236 134 -470 268 -234 134 -441 252 -460 263 -91 51 -120 69 -116 75 2 4
82 147 179 317 96 171 183 324 193 342 21 36 -1 44 208 -72z m4804 65 c10 -19
76 -134 144 -255 209 -366 227 -400 220 -407 -4 -3 -104 -61 -222 -129 -118
-67 -222 -126 -230 -131 -8 -5 -404 -231 -880 -502 l-865 -494 -17 22 c-131
161 -497 651 -491 656 4 4 125 71 268 150 143 79 278 153 300 165 22 13 195
108 385 212 190 105 365 202 390 215 25 14 140 77 255 140 116 64 228 126 250
138 22 13 69 38 105 58 36 19 91 50 123 68 32 19 59 34 61 34 2 0 43 22 91 50
49 27 90 48 91 47 1 -1 11 -18 22 -37z m-2155 -483 c192 -111 349 -206 349
-211 0 -9 -119 -78 -319 -187 -43 -23 -146 -80 -230 -126 l-152 -85 -360 198
-359 198 81 48 c44 26 81 48 82 48 1 0 65 37 141 82 76 44 163 94 192 110 29
16 90 51 135 78 45 27 84 49 87 49 3 0 162 -91 353 -202z m-2418 -881 c22 -12
184 -105 360 -206 176 -101 338 -193 360 -206 22 -12 101 -57 175 -99 74 -43
155 -89 180 -103 25 -13 102 -58 171 -98 69 -40 137 -76 151 -79 54 -14 89 15
203 166 60 79 111 146 114 149 3 3 49 61 101 130 52 69 102 134 112 144 10 11
18 23 18 28 0 4 3 8 8 8 4 0 7 -409 7 -910 0 -501 -3 -910 -8 -910 -8 0 -104
54 -397 225 -102 59 -203 117 -225 129 -22 13 -224 130 -450 260 -344 200
-804 466 -1148 664 -43 25 -80 49 -83 54 -4 6 -7 549 -5 805 l1 52 158 -91
c86 -50 175 -100 197 -112z m4487 -227 c-1 -335 -3 -424 -14 -434 -7 -7 -60
-39 -118 -72 -58 -33 -319 -183 -580 -335 -551 -320 -1297 -751 -1355 -783
-22 -13 -86 -50 -143 -84 -57 -34 -104 -61 -105 -61 -1 0 -2 412 -2 915 0 503
2 915 5 915 3 0 106 -134 230 -296 124 -163 237 -304 251 -314 46 -33 80 -20
334 125 132 76 260 149 285 163 25 14 138 78 253 144 114 65 224 127 245 139
20 11 188 107 372 213 184 106 337 191 338 190 2 -1 4 -192 4 -425z"/>
</g>
</svg>
